<svg fill="none" height="24" viewBox="0 0 24 24" width="24" xmlns="http://www.w3.org/2000/svg"><g stroke="#1c274c" stroke-width="1.5"><path d="m2 12c0-4.71405 0-7.07107 1.46447-8.53553 1.46446-1.46447 3.82148-1.46447 8.53553-1.46447 4.714 0 7.0711 0 8.5355 1.46447 1.4645 1.46446 1.4645 3.82148 1.4645 8.53553 0 4.714 0 7.0711-1.4645 8.5355-1.4644 1.4645-3.8215 1.4645-8.5355 1.4645-4.71405 0-7.07107 0-8.53553-1.4645-1.46447-1.4644-1.46447-3.8215-1.46447-8.5355z" opacity=".5"/><g stroke-linecap="round"><path d="m6 15.8 1.14286 1.2 2.85714-3" stroke-linejoin="round"/><path d="m6 8.8 1.14286 1.2 2.85714-3" stroke-linejoin="round"/><path d="m13 9h5"/><path d="m13 16h5"/></g></g></svg>