<svg width="344" height="56" viewBox="0 0 344 56" fill="none" xmlns="http://www.w3.org/2000/svg">
<path d="M283.25 43.5H290.75C297 43.5 299.5 41 299.5 34.75V27.25C299.5 21 297 18.5 290.75 18.5H283.25C277 18.5 274.5 21 274.5 27.25V34.75C274.5 41 277 43.5 283.25 43.5Z" fill="#5030E5" fill-opacity="0.2"/>
<path d="M288.137 25.8L281.65 32.2875C281.4 32.5375 281.162 33.025 281.112 33.375L280.762 35.85C280.637 36.75 281.262 37.375 282.162 37.25L284.637 36.9C284.987 36.85 285.475 36.6125 285.725 36.3625L292.212 29.875C293.325 28.7625 293.862 27.4625 292.212 25.8125C290.562 24.15 289.262 24.675 288.137 25.8Z" stroke="#5030E5" stroke-width="1.5" stroke-miterlimit="10" stroke-linecap="round" stroke-linejoin="round"/>
<path d="M287.212 26.725C287.762 28.6875 289.3 30.2375 291.275 30.7875" stroke="#5030E5" stroke-width="1.5" stroke-miterlimit="10" stroke-linecap="round" stroke-linejoin="round"/>
<path d="M325.25 43.5H332.75C339 43.5 341.5 41 341.5 34.75V27.25C341.5 21 339 18.5 332.75 18.5H325.25C319 18.5 316.5 21 316.5 27.25V34.75C316.5 41 319 43.5 325.25 43.5Z" fill="#5030E5" fill-opacity="0.2"/>
<path d="M330.993 35.3167H332C334.383 35.3167 336.317 33.3829 336.317 31C336.317 28.6172 334.383 26.6833 332 26.6833H331C330.636 26.6833 330.35 26.9785 330.35 27.3333C330.35 27.6895 330.644 27.9833 331 27.9833H332C333.664 27.9833 335.017 29.3362 335.017 31C335.017 32.6638 333.664 34.0167 332 34.0167H330.993C330.637 34.0167 330.343 34.3105 330.343 34.6667C330.343 35.0229 330.637 35.3167 330.993 35.3167Z" fill="#5030E5" stroke="#5030E5" stroke-width="0.3"/>
<path d="M326 35.3167H327C327.356 35.3167 327.65 35.0229 327.65 34.6667C327.65 34.3105 327.356 34.0167 327 34.0167H326C324.336 34.0167 322.983 32.6638 322.983 31C322.983 29.3362 324.336 27.9833 326 27.9833H327C327.356 27.9833 327.65 27.6895 327.65 27.3333C327.65 26.9772 327.356 26.6833 327 26.6833H326C323.617 26.6833 321.683 28.6172 321.683 31C321.683 33.3829 323.617 35.3167 326 35.3167Z" fill="#5030E5" stroke="#5030E5" stroke-width="0.3"/>
<path d="M326.333 31.65H331.667C332.023 31.65 332.317 31.3562 332.317 31C332.317 30.6438 332.023 30.35 331.667 30.35H326.333C325.977 30.35 325.683 30.6438 325.683 31C325.683 31.3562 325.977 31.65 326.333 31.65Z" fill="#5030E5" stroke="#5030E5" stroke-width="0.3"/>
<path d="M3.29972 11.5455H10.7159L20.6477 35.7869H21.0398L30.9716 11.5455H38.3878V45H32.5724V22.0163H32.2621L23.0163 44.902H18.6712L9.42543 21.9673H9.11506V45H3.29972V11.5455ZM55.6705 45.4901C53.2202 45.4901 51.0966 44.951 49.2997 43.8729C47.5028 42.7947 46.1089 41.2865 45.1179 39.348C44.1378 37.4096 43.6477 35.1444 43.6477 32.5526C43.6477 29.9607 44.1378 27.6901 45.1179 25.7408C46.1089 23.7914 47.5028 22.2777 49.2997 21.1996C51.0966 20.1214 53.2202 19.5824 55.6705 19.5824C58.1207 19.5824 60.2443 20.1214 62.0412 21.1996C63.8381 22.2777 65.2266 23.7914 66.2067 25.7408C67.1977 27.6901 67.6932 29.9607 67.6932 32.5526C67.6932 35.1444 67.1977 37.4096 66.2067 39.348C65.2266 41.2865 63.8381 42.7947 62.0412 43.8729C60.2443 44.951 58.1207 45.4901 55.6705 45.4901ZM55.7031 40.7528C57.0317 40.7528 58.1425 40.388 59.0355 39.6584C59.9285 38.9179 60.5928 37.9268 61.0284 36.6854C61.4749 35.4439 61.6982 34.0608 61.6982 32.5362C61.6982 31.0007 61.4749 29.6122 61.0284 28.3707C60.5928 27.1184 59.9285 26.1219 59.0355 25.3814C58.1425 24.6409 57.0317 24.2706 55.7031 24.2706C54.3419 24.2706 53.2093 24.6409 52.3054 25.3814C51.4124 26.1219 50.7427 27.1184 50.2962 28.3707C49.8606 29.6122 49.6428 31.0007 49.6428 32.5362C49.6428 34.0608 49.8606 35.4439 50.2962 36.6854C50.7427 37.9268 51.4124 38.9179 52.3054 39.6584C53.2093 40.388 54.3419 40.7528 55.7031 40.7528ZM72.9735 45V11.5455H78.8869V24.0582H79.1319C79.4368 23.4484 79.867 22.8004 80.4224 22.1143C80.9778 21.4174 81.7292 20.8239 82.6767 20.3338C83.6241 19.8329 84.8329 19.5824 86.3031 19.5824C88.2415 19.5824 89.9894 20.0779 91.5467 21.0689C93.1149 22.049 94.3564 23.5028 95.2711 25.4304C96.1968 27.3471 96.6596 29.6993 96.6596 32.4872C96.6596 35.2424 96.2077 37.5838 95.3038 39.5114C94.3999 41.4389 93.1693 42.9091 91.612 43.9219C90.0547 44.9347 88.2905 45.4411 86.3194 45.4411C84.8819 45.4411 83.6895 45.2015 82.742 44.7223C81.7946 44.2431 81.0323 43.666 80.4551 42.9908C79.8888 42.3047 79.4477 41.6567 79.1319 41.0469H78.7889V45H72.9735ZM78.7725 32.4545C78.7725 34.0772 79.0012 35.4983 79.4586 36.718C79.9269 37.9377 80.5967 38.8906 81.4679 39.5767C82.35 40.2519 83.4172 40.5895 84.6696 40.5895C85.9764 40.5895 87.0708 40.241 87.9529 39.544C88.8351 38.8362 89.4993 37.8724 89.9458 36.6527C90.4032 35.4221 90.6319 34.0227 90.6319 32.4545C90.6319 30.8973 90.4087 29.5142 89.9622 28.3054C89.5157 27.0966 88.8514 26.1491 87.9693 25.4631C87.0872 24.777 85.9873 24.4339 84.6696 24.4339C83.4063 24.4339 82.3336 24.7661 81.4515 25.4304C80.5694 26.0947 79.8997 27.0258 79.4423 28.2237C78.9958 29.4216 78.7725 30.8319 78.7725 32.4545ZM101.687 45V19.9091H107.6V45H101.687ZM104.66 16.348C103.723 16.348 102.917 16.0376 102.242 15.4169C101.567 14.7853 101.229 14.0284 101.229 13.1463C101.229 12.2533 101.567 11.4964 102.242 10.8757C102.917 10.2441 103.723 9.92827 104.66 9.92827C105.607 9.92827 106.413 10.2441 107.077 10.8757C107.753 11.4964 108.09 12.2533 108.09 13.1463C108.09 14.0284 107.753 14.7853 107.077 15.4169C106.413 16.0376 105.607 16.348 104.66 16.348ZM119.594 11.5455V45H113.681V11.5455H119.594ZM136.783 45.4901C134.267 45.4901 132.095 44.9673 130.265 43.9219C128.447 42.8655 127.047 41.3736 126.067 39.446C125.087 37.5076 124.597 35.2261 124.597 32.6016C124.597 30.0206 125.087 27.7554 126.067 25.8061C127.058 23.8459 128.441 22.3213 130.216 21.2322C131.991 20.1323 134.077 19.5824 136.473 19.5824C138.019 19.5824 139.478 19.8329 140.85 20.3338C142.234 20.8239 143.453 21.5862 144.51 22.6207C145.577 23.6553 146.415 24.973 147.025 26.5739C147.635 28.1638 147.94 30.0587 147.94 32.2585V34.0717H127.374V30.0859H142.272C142.261 28.9534 142.016 27.946 141.537 27.0639C141.057 26.1709 140.388 25.4685 139.527 24.9567C138.678 24.4448 137.687 24.1889 136.554 24.1889C135.346 24.1889 134.284 24.483 133.369 25.071C132.454 25.6482 131.741 26.4105 131.229 27.358C130.728 28.2945 130.472 29.3236 130.461 30.4453V33.9247C130.461 35.384 130.728 36.6364 131.262 37.6818C131.795 38.7164 132.541 39.5114 133.5 40.0668C134.458 40.6113 135.58 40.8835 136.865 40.8835C137.725 40.8835 138.504 40.7637 139.201 40.5241C139.898 40.2737 140.502 39.9089 141.014 39.4297C141.526 38.9505 141.912 38.357 142.174 37.6491L147.695 38.2699C147.346 39.7292 146.682 41.0033 145.702 42.0923C144.733 43.1705 143.491 44.009 141.978 44.608C140.464 45.196 138.732 45.4901 136.783 45.4901ZM168.91 45H162.442L174.219 11.5455H181.701L193.495 45H187.026L178.091 18.4062H177.829L168.91 45ZM169.123 31.8828H186.765V36.7507H169.123V31.8828ZM197.64 54.4091V19.9091H203.455V24.0582H203.798C204.103 23.4484 204.533 22.8004 205.089 22.1143C205.644 21.4174 206.396 20.8239 207.343 20.3338C208.29 19.8329 209.499 19.5824 210.969 19.5824C212.908 19.5824 214.656 20.0779 216.213 21.0689C217.781 22.049 219.023 23.5028 219.938 25.4304C220.863 27.3471 221.326 29.6993 221.326 32.4872C221.326 35.2424 220.874 37.5838 219.97 39.5114C219.066 41.4389 217.836 42.9091 216.278 43.9219C214.721 44.9347 212.957 45.4411 210.986 45.4411C209.548 45.4411 208.356 45.2015 207.408 44.7223C206.461 44.2431 205.699 43.666 205.121 42.9908C204.555 42.3047 204.114 41.6567 203.798 41.0469H203.553V54.4091H197.64ZM203.439 32.4545C203.439 34.0772 203.668 35.4983 204.125 36.718C204.593 37.9377 205.263 38.8906 206.134 39.5767C207.016 40.2519 208.084 40.5895 209.336 40.5895C210.643 40.5895 211.737 40.241 212.619 39.544C213.501 38.8362 214.166 37.8724 214.612 36.6527C215.07 35.4221 215.298 34.0227 215.298 32.4545C215.298 30.8973 215.075 29.5142 214.629 28.3054C214.182 27.0966 213.518 26.1491 212.636 25.4631C211.754 24.777 210.654 24.4339 209.336 24.4339C208.073 24.4339 207 24.7661 206.118 25.4304C205.236 26.0947 204.566 27.0258 204.109 28.2237C203.662 29.4216 203.439 30.8319 203.439 32.4545ZM226.39 54.4091V19.9091H232.205V24.0582H232.548C232.853 23.4484 233.283 22.8004 233.839 22.1143C234.394 21.4174 235.146 20.8239 236.093 20.3338C237.04 19.8329 238.249 19.5824 239.719 19.5824C241.658 19.5824 243.406 20.0779 244.963 21.0689C246.531 22.049 247.773 23.5028 248.688 25.4304C249.613 27.3471 250.076 29.6993 250.076 32.4872C250.076 35.2424 249.624 37.5838 248.72 39.5114C247.816 41.4389 246.586 42.9091 245.028 43.9219C243.471 44.9347 241.707 45.4411 239.736 45.4411C238.298 45.4411 237.106 45.2015 236.158 44.7223C235.211 44.2431 234.449 43.666 233.871 42.9908C233.305 42.3047 232.864 41.6567 232.548 41.0469H232.303V54.4091H226.39ZM232.189 32.4545C232.189 34.0772 232.418 35.4983 232.875 36.718C233.343 37.9377 234.013 38.8906 234.884 39.5767C235.766 40.2519 236.834 40.5895 238.086 40.5895C239.393 40.5895 240.487 40.241 241.369 39.544C242.251 38.8362 242.916 37.8724 243.362 36.6527C243.82 35.4221 244.048 34.0227 244.048 32.4545C244.048 30.8973 243.825 29.5142 243.379 28.3054C242.932 27.0966 242.268 26.1491 241.386 25.4631C240.504 24.777 239.404 24.4339 238.086 24.4339C236.823 24.4339 235.75 24.7661 234.868 25.4304C233.986 26.0947 233.316 27.0258 232.859 28.2237C232.412 29.4216 232.189 30.8319 232.189 32.4545Z" fill="#0D062D"/>
</svg>
